<svg version="1.1" xmlns="http://www.w3.org/2000/svg" xmlns:xlink="http://www.w3.org/1999/xlink" width="155.77001953125" height="60"><defs/><g><text fill="#cfcfcf" stroke="none" font-family="Arial" font-size="8px" font-style="normal" font-weight="normal" text-decoration="undefined" x="0" y="0" text-anchor="start" dominant-baseline="alphabetic" transform="matrix(1 0 0 1 0 0)">UNREGISTERED</text><text fill="#cfcfcf" stroke="none" font-family="Arial" font-size="8px" font-style="normal" font-weight="normal" text-decoration="undefined" x="0" y="12" text-anchor="start" dominant-baseline="alphabetic" transform="matrix(1 0 0 1 0 0)">UNREGISTERED</text><text fill="#cfcfcf" stroke="none" font-family="Arial" font-size="8px" font-style="normal" font-weight="normal" text-decoration="undefined" x="0" y="24" text-anchor="start" dominant-baseline="alphabetic" transform="matrix(1 0 0 1 0 0)">UNREGISTERED</text><text fill="#cfcfcf" stroke="none" font-family="Arial" font-size="8px" font-style="normal" font-weight="normal" text-decoration="undefined" x="0" y="36" text-anchor="start" dominant-baseline="alphabetic" transform="matrix(1 0 0 1 0 0)">UNREGISTERED</text><text fill="#cfcfcf" stroke="none" font-family="Arial" font-size="8px" font-style="normal" font-weight="normal" text-decoration="undefined" x="0" y="48" text-anchor="start" dominant-baseline="alphabetic" transform="matrix(1 0 0 1 0 0)">UNREGISTERED</text><text fill="#cfcfcf" stroke="none" font-family="Arial" font-size="8px" font-style="normal" font-weight="normal" text-decoration="undefined" x="70" y="0" text-anchor="start" dominant-baseline="alphabetic" transform="matrix(1 0 0 1 0 0)">UNREGISTERED</text><text fill="#cfcfcf" stroke="none" font-family="Arial" font-size="8px" font-style="normal" font-weight="normal" text-decoration="undefined" x="70" y="12" text-anchor="start" dominant-baseline="alphabetic" transform="matrix(1 0 0 1 0 0)">UNREGISTERED</text><text fill="#cfcfcf" stroke="none" font-family="Arial" font-size="8px" font-style="normal" font-weight="normal" text-decoration="undefined" x="70" y="24" text-anchor="start" dominant-baseline="alphabetic" transform="matrix(1 0 0 1 0 0)">UNREGISTERED</text><text fill="#cfcfcf" stroke="none" font-family="Arial" font-size="8px" font-style="normal" font-weight="normal" text-decoration="undefined" x="70" y="36" text-anchor="start" dominant-baseline="alphabetic" transform="matrix(1 0 0 1 0 0)">UNREGISTERED</text><text fill="#cfcfcf" stroke="none" font-family="Arial" font-size="8px" font-style="normal" font-weight="normal" text-decoration="undefined" x="70" y="48" text-anchor="start" dominant-baseline="alphabetic" transform="matrix(1 0 0 1 0 0)">UNREGISTERED</text><text fill="#cfcfcf" stroke="none" font-family="Arial" font-size="8px" font-style="normal" font-weight="normal" text-decoration="undefined" x="140" y="0" text-anchor="start" dominant-baseline="alphabetic" transform="matrix(1 0 0 1 0 0)">UNREGISTERED</text><text fill="#cfcfcf" stroke="none" font-family="Arial" font-size="8px" font-style="normal" font-weight="normal" text-decoration="undefined" x="140" y="12" text-anchor="start" dominant-baseline="alphabetic" transform="matrix(1 0 0 1 0 0)">UNREGISTERED</text><text fill="#cfcfcf" stroke="none" font-family="Arial" font-size="8px" font-style="normal" font-weight="normal" text-decoration="undefined" x="140" y="24" text-anchor="start" dominant-baseline="alphabetic" transform="matrix(1 0 0 1 0 0)">UNREGISTERED</text><text fill="#cfcfcf" stroke="none" font-family="Arial" font-size="8px" font-style="normal" font-weight="normal" text-decoration="undefined" x="140" y="36" text-anchor="start" dominant-baseline="alphabetic" transform="matrix(1 0 0 1 0 0)">UNREGISTERED</text><text fill="#cfcfcf" stroke="none" font-family="Arial" font-size="8px" font-style="normal" font-weight="normal" text-decoration="undefined" x="140" y="48" text-anchor="start" dominant-baseline="alphabetic" transform="matrix(1 0 0 1 0 0)">UNREGISTERED</text><g><rect fill="#C0C0C0" stroke="none" x="27" y="27" width="21.908007812500003" height="15" transform="matrix(1 0 0 1 -10 -10)" fill-opacity="0.2"/></g><g><rect fill="#C0C0C0" stroke="none" x="27" y="41" width="54.77001953125" height="26" transform="matrix(1 0 0 1 -10 -10)" fill-opacity="0.2"/></g><g><rect fill="#ffffff" stroke="none" x="20" y="35" width="54.77001953125" height="25" transform="matrix(1 0 0 1 -10 -10)"/></g><g><path fill="none" stroke="#000000" paint-order="fill stroke markers" d=" M 10 25 L 64.77001953125 25 L 64.77001953125 50 L 10 50 L 10 25 Z Z" stroke-miterlimit="10" stroke-dasharray=""/></g><g><rect fill="#ffffff" stroke="none" x="20" y="20" width="21.908007812500003" height="15" transform="matrix(1 0 0 1 -10 -10)"/></g><g><path fill="none" stroke="#000000" paint-order="fill stroke markers" d=" M 10 10 L 31.908007812500003 10 L 31.908007812500003 25 L 10 25 L 10 10 Z Z" stroke-miterlimit="10" stroke-dasharray=""/></g><g><rect fill="#ffffff" stroke="none" x="20" y="34" width="54.77001953125" height="26" transform="matrix(1 0 0 1 -10 -10)"/></g><g><path fill="none" stroke="#000000" paint-order="fill stroke markers" d=" M 10 24 L 64.77001953125 24 L 64.77001953125 50 L 10 50 L 10 24 Z Z" stroke-miterlimit="10" stroke-dasharray=""/></g><g><g><path fill="none" stroke="none"/><text fill="#000000" stroke="none" font-family="Arial" font-size="13px" font-style="normal" font-weight="bold" text-decoration="undefined" x="47.885009765625" y="48.5" text-anchor="middle" dominant-baseline="central" transform="matrix(1 0 0 1 -10 -10)">Robots</text></g></g><g><rect fill="#C0C0C0" stroke="none" x="111.77001953125" y="27" width="20" height="15" transform="matrix(1 0 0 1 -10 -10)" fill-opacity="0.2"/></g><g><rect fill="#C0C0C0" stroke="none" x="111.77001953125" y="41" width="50" height="26" transform="matrix(1 0 0 1 -10 -10)" fill-opacity="0.2"/></g><g><rect fill="#ffffff" stroke="none" x="104.77001953125" y="35" width="50" height="25" transform="matrix(1 0 0 1 -10 -10)"/></g><g><path fill="none" stroke="#000000" paint-order="fill stroke markers" d=" M 94.77001953125 25 L 144.77001953125 25 L 144.77001953125 50 L 94.77001953125 50 L 94.77001953125 25 Z Z" stroke-miterlimit="10" stroke-dasharray=""/></g><g><rect fill="#ffffff" stroke="none" x="104.77001953125" y="20" width="20" height="15" transform="matrix(1 0 0 1 -10 -10)"/></g><g><path fill="none" stroke="#000000" paint-order="fill stroke markers" d=" M 94.77001953125 10 L 114.77001953125 10 L 114.77001953125 25 L 94.77001953125 25 L 94.77001953125 10 Z Z" stroke-miterlimit="10" stroke-dasharray=""/></g><g><rect fill="#ffffff" stroke="none" x="104.77001953125" y="34" width="50" height="26" transform="matrix(1 0 0 1 -10 -10)"/></g><g><path fill="none" stroke="#000000" paint-order="fill stroke markers" d=" M 94.77001953125 24 L 144.77001953125 24 L 144.77001953125 50 L 94.77001953125 50 L 94.77001953125 24 Z Z" stroke-miterlimit="10" stroke-dasharray=""/></g><g><g><path fill="none" stroke="none"/><text fill="#000000" stroke="none" font-family="Arial" font-size="13px" font-style="normal" font-weight="bold" text-decoration="undefined" x="130.27001953125" y="48.5" text-anchor="middle" dominant-baseline="central" transform="matrix(1 0 0 1 -10 -10)">Field</text></g></g></g></svg>